<svg xmlns="http://www.w3.org/2000/svg" xmlns:xlink="http://www.w3.org/1999/xlink" id="Capa_1" x="0px" y="0px" viewBox="0 0 464 464" style="enable-background:new 0 0 464 464;" xml:space="preserve">
<path style="fill:#4C3D24;" d="M104,352V128C104,57.308,161.308,0,232,0s128,57.308,128,128v224H104z"></path>
<path style="fill:#954E22;" d="M344,328h-72l-40,40l-40-40h-72c-26.51,0-48,21.49-48,48v88h320v-88C392,349.49,370.51,328,344,328z"></path>
<path style="fill:#F2DBC0;" d="M312.984,144c-14.682-0.002-27.48-9.996-31.04-24.24L264,56l-16.424,57.704  c-4.45,17.795-20.433,30.283-38.776,30.296H144v48c0.007,33.053,18.551,63.31,48,78.32l0,0V328l40,40l40-40v-57.68l0,0  c29.449-15.01,47.993-45.267,48-78.32v-48H312.984z"></path>
<g>
	<path style="fill:#30271F;" d="M192,198c-7.732,0-14-6.268-14-14s6.268-14,14-14s14,6.268,14,14   C205.991,191.728,199.728,197.991,192,198z M192,182c-1.105,0-2,0.895-2,2c0,2.2,4,2.2,4,0C194,182.895,193.105,182,192,182z"></path>
	<path style="fill:#30271F;" d="M272,198c-7.732,0-14-6.268-14-14s6.268-14,14-14s14,6.268,14,14   C285.991,191.728,279.728,197.991,272,198z M272,182c-1.105,0-2,0.895-2,2c0,2.2,4,2.2,4,0C274,182.895,273.105,182,272,182z"></path>
</g>
<path style="fill:#F0CAA8;" d="M232,254c-16.561-0.018-29.982-13.439-30-30h12c0,9.941,8.059,18,18,18s18-8.059,18-18h12  C261.982,240.561,248.561,253.982,232,254z"></path>
<g>
	<path style="fill:#DBC6AE;" d="M272,278.312v-8l0,0c-2.836,1.446-5.75,2.733-8.728,3.856c-0.432,0.168-0.864,0.32-1.304,0.48   c-2.549,0.928-5.152,1.728-7.808,2.4c-0.72,0.192-1.432,0.384-2.152,0.56c-2.472,0.576-4.992,1.024-7.536,1.384   c-0.8,0.12-1.6,0.28-2.4,0.376c-6.658,0.811-13.39,0.811-20.048,0c-0.8-0.096-1.6-0.256-2.4-0.376   c-2.544-0.36-5.064-0.8-7.536-1.384c-0.72-0.176-1.432-0.368-2.152-0.56c-2.667-0.688-5.269-1.488-7.808-2.4   c-0.44-0.16-0.872-0.312-1.304-0.48c-3.011-1.117-5.957-2.402-8.824-3.848l0,0v8l0,0c2.839,1.439,5.752,2.726,8.728,3.856   c0.432,0.168,0.864,0.32,1.304,0.48c2.544,0.928,5.152,1.72,7.808,2.4c0.72,0.192,1.432,0.392,2.152,0.56   c2.472,0.576,4.992,1.016,7.536,1.384c0.8,0.12,1.6,0.28,2.4,0.376c6.658,0.811,13.39,0.811,20.048,0   c0.8-0.096,1.6-0.256,2.4-0.376c2.544-0.368,5.064-0.8,7.536-1.384c0.72-0.168,1.432-0.368,2.152-0.56   c2.656-0.696,5.264-1.488,7.808-2.4c0.44-0.16,0.872-0.312,1.304-0.48c3.008-1.126,5.954-2.414,8.824-3.856V278.312z"></path>
	<path style="fill:#DBC6AE;" d="M264,56l-16.424,57.704c-4.45,17.795-20.433,30.283-38.776,30.296h8   c18.355,0.001,34.355-12.49,38.808-30.296l12.4-43.568L264,56z"></path>
</g>
<g>
</g>
<g>
</g>
<g>
</g>
<g>
</g>
<g>
</g>
<g>
</g>
<g>
</g>
<g>
</g>
<g>
</g>
<g>
</g>
<g>
</g>
<g>
</g>
<g>
</g>
<g>
</g>
<g>
</g>
</svg>